<?xml version="1.0" encoding="iso-8859-1"?>
<!-- Generator: Adobe Illustrator 25.0.0, SVG Export Plug-In . SVG Version: 6.00 Build 0)  -->
<svg fill="#FD7E14" version="1.1" baseProfile="basic" id="Layer_1"
	 xmlns="http://www.w3.org/2000/svg" xmlns:xlink="http://www.w3.org/1999/xlink" x="0px" y="0px" viewBox="0 0 72 72"
	 xml:space="preserve">
<path d="M36,23c7.18,0,13,5.82,13,13s-5.82,13-13,13s-13-5.82-13-13S28.82,23,36,23z"/>
<path d="M40,11c0,0.732,0,3.268,0,4c0,2.209-1.791,4-4,4s-4-1.791-4-4c0-0.732,0-3.268,0-4c0-2.209,1.791-4,4-4S40,8.791,40,11z"/>
<path d="M56.506,21.151c-0.518,0.518-2.311,2.311-2.828,2.828c-1.562,1.562-4.095,1.562-5.657,0s-1.562-4.095,0-5.657
	c0.518-0.518,2.311-2.311,2.828-2.828c1.562-1.562,4.095-1.562,5.657,0S58.068,19.589,56.506,21.151z"/>
<path d="M61,40c-0.732,0-3.268,0-4,0c-2.209,0-4-1.791-4-4s1.791-4,4-4c0.732,0,3.268,0,4,0c2.209,0,4,1.791,4,4S63.209,40,61,40z"
	/>
<path d="M50.849,56.506c-0.518-0.518-2.311-2.311-2.828-2.828c-1.562-1.562-1.562-4.095,0-5.657s4.095-1.562,5.657,0
	c0.518,0.518,2.311,2.311,2.828,2.828c1.562,1.562,1.562,4.095,0,5.657S52.411,58.068,50.849,56.506z"/>
<path d="M32,61c0-0.732,0-3.268,0-4c0-2.209,1.791-4,4-4s4,1.791,4,4c0,0.732,0,3.268,0,4c0,2.209-1.791,4-4,4S32,63.209,32,61z"/>
<path d="M15.494,50.849c0.518-0.518,2.311-2.311,2.828-2.828c1.562-1.562,4.095-1.562,5.657,0s1.562,4.095,0,5.657
	c-0.518,0.518-2.311,2.311-2.828,2.828c-1.562,1.562-4.095,1.562-5.657,0S13.932,52.411,15.494,50.849z"/>
<path d="M11,32c0.732,0,3.268,0,4,0c2.209,0,4,1.791,4,4s-1.791,4-4,4c-0.732,0-3.268,0-4,0c-2.209,0-4-1.791-4-4S8.791,32,11,32z"
	/>
<path d="M21.151,15.494c0.518,0.518,2.311,2.311,2.828,2.828c1.562,1.562,1.562,4.095,0,5.657s-4.095,1.562-5.657,0
	c-0.518-0.518-2.311-2.311-2.828-2.828c-1.562-1.562-1.562-4.095,0-5.657S19.589,13.932,21.151,15.494z"/>
</svg>